<!--version="1.0" encoding="UTF-8" standalone="no"--><svg width="237" height="67" viewBox="0 0 237 67" version="1.1" xmlns="http://www.w3.org/2000/svg"><!-- Generator: Sketch 39.1 (31720) - http://www.bohemiancoding.com/sketch --><g id="Page-1" stroke="none" stroke-width="1" fill="none" fill-rule="evenodd"><g id="Desktop-HD-Copy-2" transform="translate(-602.000000, -89.000000)" fill="#B3B9BF"><g id="TENOR_VECTOR-2" transform="translate(602.000000, 89.000000)"><path d="M46.975 44.125c.358 2.686 1.134 5.088 2.507 7.252 3.223 5.089 7.909 7.506 13.907 7.461 4.924-.03 9.147-1.82 12.788-5.103 1.91-1.731 4.596-1.403 5.939.671.97 1.493.776 3.298-.567 4.641-4.074 4.074-8.924 6.61-14.669 7.312-3.76.462-7.505.372-11.16-.762-8.327-2.582-13.863-8.103-16.325-16.4-2.88-9.744-1.343-18.801 5.446-26.59 4.612-5.268 10.58-7.775 17.61-7.656 6.058.104 11.34 2.164 15.593 6.566 3.537 3.656 5.491 8.117 6.387 13.072.343 1.88.492 3.79.582 5.7.104 2.104-1.537 3.745-3.641 3.85-.298.015-.596 0-.895 0h-32.44c-.299-.015-.612-.015-1.06-.015zm29.128-7.506c-.224-1.94-.776-3.731-1.507-5.477-4.357-10.252-15.683-10.52-21.503-5.522-3.059 2.628-4.864 5.985-5.76 9.865-.09.358-.12.716-.194 1.134h28.963z" id="Shape"/><path d="M144.805 40.484c.015-13.191 10.237-25.592 25.875-25.562 14.58.015 25.756 11.311 25.726 25.995-.03 14.43-11.43 25.68-26.04 25.696-14.07 0-25.59-11.76-25.56-26.13zm42.767.686c-.075-5.118-1.552-9.386-4.79-12.997-6.61-7.386-18.683-7.103-25.025.507-5.282 6.342-5.655 17.534.478 24.428 5.462 6.148 15.28 7.416 21.965 2.641 5.089-3.642 7.223-8.79 7.372-14.58z" id="Shape"/><path d="M101.993 22.174c.94-.895 1.701-1.656 2.492-2.372 3.82-3.492 8.386-4.925 13.475-4.88 4.014.045 7.79.94 11.132 3.268 4.148 2.895 6.402 6.999 7.282 11.878.283 1.582.433 3.208.448 4.82.044 9.132.015 18.25.015 27.382 0 1.746-1.105 3.403-2.731 4-1.701.626-3.298.373-4.611-.94-.925-.91-1.328-2.06-1.328-3.373.015-8.46.045-16.907-.03-25.368a21.664 21.664 0 0 0-.657-5c-1.268-4.94-4.805-7.938-9.863-8.52-3.596-.418-7.014.149-10.013 2.328-3.984 2.894-5.58 7.013-5.596 11.788-.03 8.327 0 16.668-.015 24.995 0 3.194-3.104 5.268-6.058 4.06-1.567-.642-2.626-2.343-2.626-4.253l-.001-13.206-.001-29.47c-.001-1.687.774-2.97 2.207-3.806 1.477-.865 3.014-.82 4.462.09 1.237.79 1.983 1.94 2.013 3.462.015.985 0 1.94 0 3.118z" id="Shape"/><path d="M18.638 15.937H30.352c1.611 0 2.925.522 3.76 1.97 1.388 2.432-.03 5.372-2.805 5.79a9.99 9.99 0 0 1-1.343.074l-10.371.001-.955.001v27.473c0 1.79.283 3.507 1.492 4.969.985 1.194 2.313 1.7 3.76 1.925 2.164.343 4.313.164 6.417-.493 2-.641 3.97.254 4.64 2.12.687 1.895-.283 3.76-2.133 4.655-2.507 1.223-5.133 1.76-7.909 1.91-7.192.357-13.654-4.865-14.743-11.998-.15-.925-.194-1.88-.194-2.82-.015-8.88-.015-17.758-.015-26.637v-1.03c-.328-.014-.597-.044-.85-.044-1.642 0-3.283.03-4.925-.014-2.686-.075-4.417-2.09-4.014-4.626.284-1.79 1.91-3.134 3.955-3.193 1.61-.045 3.237-.015 4.848-.015.985 0 .985 0 .985-1.03V4.552c0-2.538 1.836-4.477 4.283-4.507 2.447-.03 4.372 1.925 4.387 4.491.015 3.477 0 6.97 0 10.446.015.283.015.582.015.955z" id="Shape"/><path d="M213.746 25.383c1.283-1.463 2.417-2.91 3.73-4.193 3-2.925 6.521-4.97 10.67-5.79 1.253-.254 2.566-.314 3.85-.254 2.432.134 4.252 2.164 4.252 4.551 0 2.358-1.85 4.358-4.253 4.581-1.775.165-3.58.194-5.327.567-4.79 1.03-8.177 3.925-10.356 8.267-1.91 3.79-2.552 7.88-2.566 12.072-.03 5.596 0 11.192 0 16.788 0 2.596-1.91 4.61-4.373 4.596-2.477-.015-4.342-1.94-4.342-4.536V19.22c0-1.94 1.374-3.7 3.224-4.164 2.03-.507 4 .329 4.88 2.194a6.08 6.08 0 0 1 .567 2.358c.09 1.656.03 3.327.03 4.999.016.253.016.492.016.776z" id="Shape"/></g></g></g></svg>