<!--version="1.0" encoding="UTF-8" standalone="no"--><svg width="40" height="40" viewBox="0 0 40 40" version="1.1" xmlns="http://www.w3.org/2000/svg"><!-- Generator: Sketch 3.8.3 (29802) - http://www.bohemiancoding.com/sketch --><g id="signedOut" stroke="none" stroke-width="1" fill="none" fill-rule="evenodd"><g id="itemViewV2-Copy-3" transform="translate(-400.000000, -640.000000)"><g id="Twitter" transform="translate(400.000000, 640.000000)"><rect fill="#1DA1F2" x="0" y="0" width="40" height="40" rx="20"/><path d="M26.404 15.052a3.598 3.598 0 0 0 1.578-1.985 7.125 7.125 0 0 1-2.278.87A3.587 3.587 0 0 0 19.5 16.39c0 .281.03.555.093.818a10.162 10.162 0 0 1-7.393-3.751 3.59 3.59 0 0 0 1.115 4.792 3.502 3.502 0 0 1-1.63-.448v.044a3.59 3.59 0 0 0 2.878 3.52 3.61 3.61 0 0 1-.944.125c-.23-.001-.457-.023-.675-.068a3.59 3.59 0 0 0 3.352 2.493 7.19 7.19 0 0 1-5.312 1.485 10.023 10.023 0 0 0 5.49 1.622c6.603 0 10.21-5.47 10.21-10.215a9.54 9.54 0 0 0-.01-.463 7.3 7.3 0 0 0 1.788-1.859 7.25 7.25 0 0 1-2.06.567z" id="Shape-Copy-2" fill="#FFFFFF"/></g></g></g></svg>